<svg width="68" height="66" viewBox="0 0 68 66" fill="none" xmlns="http://www.w3.org/2000/svg">
<path fill-rule="evenodd" clip-rule="evenodd" d="M58.2309 38.2028C58.2309 37.26 57.9598 36.4572 57.4172 35.794C56.8743 35.1316 56.1964 34.5061 55.3828 33.9168C54.5135 33.2904 53.6273 32.6861 52.7249 32.1046C51.7593 31.4791 50.8686 30.7531 50.069 29.9396C49.2545 29.1149 48.5758 28.1432 48.0341 27.0238C47.4911 25.9044 47.2201 24.5349 47.2201 22.9139C47.2201 21.4118 47.4407 20.1381 47.8843 19.0918C48.326 18.047 48.9338 17.1919 49.705 16.5287C50.4762 15.8659 51.3899 15.3808 52.447 15.0708C53.5029 14.7615 54.6316 14.6069 55.8316 14.6069C57.2895 14.6069 58.6445 14.755 59.9022 15.0492C61.159 15.3439 62.2005 15.7417 63.0294 16.2417L61.3597 21.1463C60.872 20.7932 60.1524 20.4693 59.195 20.1747C58.2381 19.8804 57.203 19.7323 56.0883 19.7323C54.9748 19.7323 54.1179 19.9692 53.5177 20.4393C52.9179 20.9109 52.6188 21.6037 52.6188 22.5162C52.6188 23.3409 52.8898 24.0703 53.4324 24.7038C53.9745 25.3374 54.6544 25.9482 55.4677 26.5372C56.3391 27.1664 57.2243 27.7778 58.1228 28.3709C59.09 29.0121 59.9812 29.7531 60.7807 30.5805C61.5943 31.4202 62.2722 32.4073 62.8159 33.5413C63.3577 34.675 63.63 36.0229 63.63 37.5843C63.63 39.1457 63.4081 40.5001 62.9657 41.6491C62.5216 42.7978 61.8946 43.7483 61.0798 44.4996C60.2665 45.2505 59.2875 45.8183 58.146 46.1999C57.0028 46.5826 55.7319 46.7749 54.3321 46.7749C52.5607 46.7749 51.0111 46.598 49.6834 46.2449C48.3552 45.8913 47.333 45.4928 46.6195 45.0516L48.3768 40.0585C48.9478 40.412 49.733 40.7659 50.7328 41.1191C51.7327 41.4726 52.8037 41.6491 53.9465 41.6491C56.8018 41.6491 58.2309 40.5005 58.2309 38.2028ZM24.2115 30.7201V33.9468L29.5353 34.6265V41.1264C29.1032 41.5069 28.5896 41.7918 28.0305 41.9611C27.4544 42.1376 26.853 42.2263 26.2483 42.2242C24.3039 42.2239 22.7376 41.356 21.5487 39.62C20.3603 37.8832 19.7661 35.1778 19.7661 31.5022C19.7661 29.5923 19.9279 27.9501 20.2526 26.5753C22.768 14.1987 34.2869 10.125 34.2869 10.125C34.2869 10.125 33.9966 9.27796 32.0378 5.12231C14.9777 12.4846 13.591 26.8922 13.6551 31.4591C13.6551 34.2372 13.9402 36.6176 14.512 38.6002C15.0822 40.5824 15.8842 42.2181 16.9196 43.5048C17.9527 44.7927 19.2104 45.7409 20.6923 46.3483C22.1738 46.9561 23.8251 47.26 25.6465 47.26C27.1581 47.26 28.6784 47.0354 30.2072 46.5876C31.7343 46.1391 33.0689 45.4082 34.2116 44.3953V30.7201H24.2115Z" fill="#254AA5"/>
<path fill-rule="evenodd" clip-rule="evenodd" d="M23.9376 61.76C16.1889 61.76 9.20858 58.2125 5.72024 52.5024C5.44705 52.0546 5.1969 51.5942 4.97067 51.1229C8.02618 49.9804 10.0446 49.2996 10.0446 49.2996C12.363 53.6656 17.8049 56.4815 23.938 56.4815C30.0718 56.4815 35.5129 53.6656 37.8313 49.2996C37.8313 49.2996 39.9655 50.092 42.9149 51.1083C39.8898 57.4716 32.4102 61.76 23.9376 61.76Z" fill="#F68712"/>
<path fill-rule="evenodd" clip-rule="evenodd" d="M4.59911 46.156H9.9986V15.2735H4.59911V46.156Z" fill="#254AA5"/>
<path fill-rule="evenodd" clip-rule="evenodd" d="M10.6561 8.22473C10.6561 7.80111 10.5693 7.38163 10.4005 6.99027C10.2317 6.5989 9.98436 6.24332 9.67249 5.94385C9.36061 5.64437 8.99037 5.40687 8.58292 5.24492C8.17547 5.08297 7.73879 4.99975 7.29785 5C6.85707 5.00005 6.42062 5.08351 6.01342 5.24562C5.60622 5.40773 5.23624 5.64531 4.92462 5.9448C4.613 6.24428 4.36583 6.59981 4.19724 6.99107C4.02865 7.38232 3.94193 7.80166 3.94203 8.22512C3.94203 9.08027 4.29563 9.90039 4.92504 10.5051C5.55446 11.1098 6.40812 11.4495 7.29825 11.4495C7.73913 11.4497 8.17573 11.3664 8.58311 11.2045C8.99049 11.0425 9.36066 10.805 9.67248 10.5056C9.98431 10.2062 10.2317 9.85067 10.4004 9.45938C10.5692 9.06808 10.6561 8.64867 10.6561 8.22512" fill="#F68712"/>
<path fill-rule="evenodd" clip-rule="evenodd" d="M37.9098 46.1568H43.3093V15.2824H37.9098V46.1568Z" fill="#254AA5"/>
<path fill-rule="evenodd" clip-rule="evenodd" d="M43.9663 8.27937C43.9661 7.42418 43.6123 6.6041 42.9828 5.9995C42.3532 5.3949 41.4995 5.0553 40.6093 5.0554C39.7191 5.0554 38.8653 5.39515 38.2358 5.99991C37.6064 6.60466 37.2527 7.42488 37.2527 8.28014C37.2527 9.13539 37.6064 9.95561 38.2358 10.5604C38.8653 11.1651 39.7191 11.5049 40.6093 11.5049C41.0502 11.5049 41.4867 11.4214 41.894 11.2594C42.3013 11.0973 42.6714 10.8597 42.9831 10.5603C43.2948 10.2608 43.5421 9.90524 43.7108 9.51395C43.8795 9.12266 43.9663 8.70328 43.9663 8.27975" fill="#F68712"/>
</svg>
